# Blender 4.0.2
# www.blender.org
mtllib Straightroad2.mtl
o Interseccion
v 1.001459 -0.000778 0.502982
v 1.001459 -0.000778 0.669649
v 1.001459 -0.000778 0.336315
v 1.001459 -0.000778 0.002982
v 1.001459 -0.000778 0.502982
v 1.001459 -0.000778 0.669649
v 1.001459 -0.000778 0.669649
v 1.001459 -0.000778 0.502982
v 1.001459 0.027746 0.669649
v 1.001459 0.027746 0.502982
v 1.001459 -0.000778 0.014887
v 0.001459 -0.000778 0.502982
v 0.001459 -0.000778 0.669649
v 0.001459 -0.000778 0.336315
v 0.001459 -0.000778 0.002982
v 0.001459 -0.000778 0.502982
v 0.001459 -0.000778 0.669649
v 0.001459 -0.000778 0.669649
v 0.001459 -0.000778 0.502982
v 0.001459 0.027746 0.669649
v 0.001459 0.027746 0.502982
v 0.001459 -0.000778 0.014887
v -0.998541 -0.000778 0.502982
v -0.998541 -0.000778 0.669649
v -0.998541 -0.000778 0.336315
v -0.998541 -0.000778 0.002982
v -0.998541 -0.000778 0.502982
v -0.998541 -0.000778 0.669649
v -0.998541 -0.000778 0.669649
v -0.998541 -0.000778 0.502982
v -0.998541 0.027746 0.669649
v -0.998541 0.027746 0.502982
v -0.998541 -0.000778 0.014887
v 1.001459 -0.000778 -0.477759
v 1.001459 -0.000778 -0.644426
v 1.001459 -0.000778 -0.311092
v 1.001459 -0.000778 0.022241
v 1.001459 -0.000778 -0.477759
v 1.001459 -0.000778 -0.644426
v 1.001459 -0.000778 -0.644426
v 1.001459 -0.000778 -0.477759
v 1.001459 0.027746 -0.644426
v 1.001459 0.027746 -0.477759
v 1.001459 -0.000778 0.010336
v 0.001459 -0.000778 -0.477759
v 0.001459 -0.000778 -0.644426
v 0.001459 -0.000778 -0.311092
v 0.001459 -0.000778 0.022241
v 0.001459 -0.000778 -0.477759
v 0.001459 -0.000778 -0.644426
v 0.001459 -0.000778 -0.644426
v 0.001459 -0.000778 -0.477759
v 0.001459 0.027746 -0.644426
v 0.001459 0.027746 -0.477759
v 0.001459 -0.000778 0.010336
v -0.998541 -0.000778 -0.477759
v -0.998541 -0.000778 -0.644426
v -0.998541 -0.000778 -0.311092
v -0.998541 -0.000778 0.022241
v -0.998541 -0.000778 -0.477759
v -0.998541 -0.000778 -0.644426
v -0.998541 -0.000778 -0.644426
v -0.998541 -0.000778 -0.477759
v -0.998541 0.027746 -0.644426
v -0.998541 0.027746 -0.477759
v -0.998541 -0.000778 0.010336
v 1.001459 -0.000778 0.502982
v 0.001459 -0.000778 0.502982
v -0.998541 -0.000778 0.502982
v 0.663006 -0.000778 0.336315
v 0.329673 -0.000778 0.336315
v 0.663006 -0.000778 0.002982
v 0.329673 -0.000778 0.002982
v 0.329673 -0.000778 0.014887
v 0.663006 -0.000778 0.014887
v 0.663006 -0.000778 0.502982
v 0.329673 -0.000778 0.502982
v 0.332015 0.027746 0.502982
v 0.665348 0.027746 0.502982
v 0.665348 0.027746 0.669649
v 0.332015 0.027746 0.669649
v 1.001459 -0.000778 -0.477759
v 0.001459 -0.000778 -0.477759
v -0.998541 -0.000778 -0.477759
v 0.663794 -0.000778 -0.311092
v 0.330460 -0.000778 -0.311092
v 0.663794 -0.000778 0.022241
v 0.330460 -0.000778 0.022241
v 0.330460 -0.000778 0.010336
v 0.663794 -0.000778 0.010336
v 0.330460 -0.000778 -0.477759
v 0.663794 -0.000778 -0.477759
v 0.331386 0.027746 -0.477759
v 0.664719 0.027746 -0.477759
v 0.664719 0.027746 -0.644426
v 0.331386 0.027746 -0.644426
v -0.665208 -0.000778 0.336315
v -0.331875 -0.000778 0.336315
v -0.665208 -0.000778 0.002982
v -0.331875 -0.000778 0.002982
v -0.331875 -0.000778 0.014887
v -0.665208 -0.000778 0.014887
v -0.331875 -0.000778 0.502982
v -0.665208 -0.000778 0.502982
v -0.334409 0.027746 0.502982
v -0.667743 0.027746 0.502982
v -0.667743 0.027746 0.669649
v -0.334409 0.027746 0.669649
v -0.666690 -0.000778 -0.311092
v -0.333356 -0.000778 -0.311092
v -0.666690 -0.000778 0.022241
v -0.333356 -0.000778 0.022241
v -0.333356 -0.000778 0.010336
v -0.666690 -0.000778 0.010336
v -0.666690 -0.000778 -0.477759
v -0.333356 -0.000778 -0.477759
v -0.333347 0.027746 -0.477759
v -0.666681 0.027746 -0.477759
v -0.666681 0.027746 -0.644426
v -0.333347 0.027746 -0.644426
v -0.998149 0.001916 0.022087
v -0.660573 0.001916 0.022087
v -0.998149 0.001916 0.000619
v -0.660573 0.001916 0.000619
v -0.336320 0.001915 0.018395
v 0.001256 0.001915 0.018395
v -0.336320 0.001915 -0.003073
v 0.001256 0.001915 -0.003073
v 0.325509 0.001915 0.014703
v 0.663085 0.001915 0.014703
v 0.325509 0.001915 -0.006766
v 0.663085 0.001915 -0.006766
vn -0.0000 1.0000 -0.0000
vn -0.0000 -0.0000 -1.0000
vn -0.0000 -0.0000 1.0000
vn -0.0000 -1.0000 -0.0000
vt 0.000000 0.000000
s 0
usemtl Street
f 2/1/1 6/1/1 5/1/1 1/1/1
f 6/1/1 7/1/1 8/1/1 5/1/1
f 13/1/1 12/1/1 16/1/1 17/1/1
f 17/1/1 16/1/1 19/1/1 18/1/1
f 10/1/2 8/1/2 19/1/2 21/1/2 78/1/2 79/1/2
f 77/1/1 71/1/1 14/1/1 68/1/1
f 7/1/1 6/1/1 17/1/1 18/1/1
f 7/1/3 9/1/3 80/1/3 81/1/3 20/1/3 18/1/3
f 74/1/1 73/1/1 15/1/1 22/1/1
f 71/1/1 74/1/1 22/1/1 14/1/1
f 8/1/4 7/1/4 18/1/4 19/1/4
f 6/1/1 2/1/1 13/1/1 17/1/1
f 2/1/1 1/1/1 12/1/1 13/1/1
f 5/1/1 8/1/1 19/1/1 16/1/1
f 1/1/1 5/1/1 16/1/1 12/1/1
f 24/1/1 23/1/1 27/1/1 28/1/1
f 28/1/1 27/1/1 30/1/1 29/1/1
f 32/1/2 106/1/2 105/1/2 21/1/2 19/1/2 30/1/2
f 103/1/1 68/1/1 14/1/1 98/1/1
f 29/1/1 18/1/1 17/1/1 28/1/1
f 29/1/3 18/1/3 20/1/3 108/1/3 107/1/3 31/1/3
f 101/1/1 22/1/1 15/1/1 100/1/1
f 98/1/1 14/1/1 22/1/1 101/1/1
f 30/1/4 19/1/4 18/1/4 29/1/4
f 28/1/1 17/1/1 13/1/1 24/1/1
f 24/1/1 13/1/1 12/1/1 23/1/1
f 27/1/1 16/1/1 19/1/1 30/1/1
f 23/1/1 12/1/1 16/1/1 27/1/1
f 35/1/1 34/1/1 38/1/1 39/1/1
f 39/1/1 38/1/1 41/1/1 40/1/1
f 46/1/1 50/1/1 49/1/1 45/1/1
f 50/1/1 51/1/1 52/1/1 49/1/1
f 43/1/3 94/1/3 93/1/3 54/1/3 52/1/3 41/1/3
f 91/1/1 83/1/1 47/1/1 86/1/1
f 40/1/1 51/1/1 50/1/1 39/1/1
f 40/1/2 51/1/2 53/1/2 96/1/2 95/1/2 42/1/2
f 89/1/1 55/1/1 48/1/1 88/1/1
f 86/1/1 47/1/1 55/1/1 89/1/1
f 41/1/4 52/1/4 51/1/4 40/1/4
f 39/1/1 50/1/1 46/1/1 35/1/1
f 35/1/1 46/1/1 45/1/1 34/1/1
f 38/1/1 49/1/1 52/1/1 41/1/1
f 34/1/1 45/1/1 49/1/1 38/1/1
f 57/1/1 61/1/1 60/1/1 56/1/1
f 61/1/1 62/1/1 63/1/1 60/1/1
f 65/1/3 63/1/3 52/1/3 54/1/3 117/1/3 118/1/3
f 116/1/1 110/1/1 47/1/1 83/1/1
f 62/1/1 61/1/1 50/1/1 51/1/1
f 62/1/2 64/1/2 119/1/2 120/1/2 53/1/2 51/1/2
f 113/1/1 112/1/1 48/1/1 55/1/1
f 110/1/1 113/1/1 55/1/1 47/1/1
f 63/1/4 62/1/4 51/1/4 52/1/4
f 61/1/1 57/1/1 46/1/1 50/1/1
f 57/1/1 56/1/1 45/1/1 46/1/1
f 60/1/1 63/1/1 52/1/1 49/1/1
f 56/1/1 60/1/1 49/1/1 45/1/1
f 23/1/4 12/1/4 68/1/4 103/1/4 104/1/4 69/1/4
f 1/1/1 67/1/1 76/1/1 77/1/1 68/1/1 12/1/1
f 3/1/1 11/1/1 75/1/1 70/1/1
f 70/1/1 75/1/1 74/1/1 71/1/1
f 11/1/1 4/1/1 72/1/1 75/1/1
f 75/1/1 72/1/1 73/1/1 74/1/1
f 67/1/1 3/1/1 70/1/1 76/1/1
f 76/1/1 70/1/1 71/1/1 77/1/1
f 56/1/1 84/1/1 115/1/1 116/1/1 83/1/1 45/1/1
f 34/1/4 45/1/4 83/1/4 91/1/4 92/1/4 82/1/4
f 36/1/1 85/1/1 90/1/1 44/1/1
f 85/1/1 86/1/1 89/1/1 90/1/1
f 44/1/1 90/1/1 87/1/1 37/1/1
f 90/1/1 89/1/1 88/1/1 87/1/1
f 82/1/1 92/1/1 85/1/1 36/1/1
f 92/1/1 91/1/1 86/1/1 85/1/1
f 25/1/1 97/1/1 102/1/1 33/1/1
f 97/1/1 98/1/1 101/1/1 102/1/1
f 33/1/1 102/1/1 99/1/1 26/1/1
f 102/1/1 101/1/1 100/1/1 99/1/1
f 69/1/1 104/1/1 97/1/1 25/1/1
f 104/1/1 103/1/1 98/1/1 97/1/1
f 58/1/1 66/1/1 114/1/1 109/1/1
f 109/1/1 114/1/1 113/1/1 110/1/1
f 66/1/1 59/1/1 111/1/1 114/1/1
f 114/1/1 111/1/1 112/1/1 113/1/1
f 84/1/1 58/1/1 109/1/1 115/1/1
f 115/1/1 109/1/1 110/1/1 116/1/1
usemtl Sidewalk
f 81/1/1 78/1/1 21/1/1 20/1/1
f 108/1/1 20/1/1 21/1/1 105/1/1
f 96/1/1 53/1/1 54/1/1 93/1/1
f 120/1/1 117/1/1 54/1/1 53/1/1
f 9/1/1 10/1/1 79/1/1 80/1/1
f 80/1/1 79/1/1 78/1/1 81/1/1
f 42/1/1 95/1/1 94/1/1 43/1/1
f 95/1/1 96/1/1 93/1/1 94/1/1
f 31/1/1 107/1/1 106/1/1 32/1/1
f 107/1/1 108/1/1 105/1/1 106/1/1
f 64/1/1 65/1/1 118/1/1 119/1/1
f 119/1/1 118/1/1 117/1/1 120/1/1
usemtl Stripes
f 123/1/1 121/1/1 122/1/1 124/1/1
f 127/1/1 125/1/1 126/1/1 128/1/1
f 131/1/1 129/1/1 130/1/1 132/1/1
