# Blender 4.0.2
# www.blender.org
mtllib SuperRoad.mtl
o Plane
v 4.624913 -0.013014 2.279817
v -0.003389 -0.013014 4.636066
v 1.537764 -0.013014 4.636066
v 3.078914 -0.013014 4.636066
v 4.624913 -0.013014 3.050394
v 4.624913 -0.013014 1.509240
v 4.624913 -0.013014 -0.031910
v 3.078914 -0.013014 2.279817
v 2.308337 -0.013014 2.279817
v 2.308337 -0.013014 3.050394
v 3.078914 -0.013014 3.050394
v 4.624913 -0.013014 2.279817
v 4.624913 -0.013014 3.050394
v 3.078914 -0.013014 4.636066
v 2.308337 -0.013014 4.636066
v 2.308337 -0.013014 2.279817
v 2.308337 -0.013014 -0.031910
v -0.003389 -0.013014 3.050394
v -0.003389 -0.013014 1.509240
v -0.003389 -0.013014 -0.031910
v 2.308337 -0.013014 1.509240
v 2.308337 -0.013014 3.050394
v 1.537764 -0.013014 3.050394
v 1.537764 -0.013014 1.509240
v 1.537764 -0.013014 -0.031910
v 2.308337 -0.013014 4.636066
v 3.078914 -0.013014 2.279817
v 3.078914 -0.013014 3.050394
v 3.078914 -0.013014 1.509240
v 3.078914 -0.013014 -0.031910
v 1.537764 -0.013014 2.279817
v -0.003389 -0.013014 2.279817
v 3.078914 -0.013014 3.050394
v 3.078914 -0.013014 2.279817
v 4.624913 -0.013014 3.050394
v 4.624913 -0.013014 2.279817
v 2.308337 -0.013014 3.050394
v -0.003389 -0.013014 0.023132
v 2.308337 -0.013014 4.636066
v 3.078914 -0.013014 4.636066
v 3.078914 0.118865 3.050394
v 3.078914 0.118865 2.279817
v 4.624913 0.118865 3.050394
v 4.624913 0.118865 2.279817
v 2.308337 0.118865 3.050394
v 4.624913 -0.013014 0.023132
v 2.308337 0.118865 4.636066
v 3.078914 0.118865 4.636066
v 2.308337 -0.013014 2.648311
v 2.676836 -0.013014 2.279817
v 2.308337 -0.013014 2.279817
v 2.357706 -0.013014 2.464066
v 2.492586 -0.013014 2.329186
v 2.676836 0.118865 2.279817
v 2.308337 0.118865 2.648311
v 2.492586 0.118865 2.329186
v 2.357706 0.118865 2.464066
v 1.537764 -0.013014 0.023132
v 3.078914 -0.013014 0.023132
v 2.308337 -0.013014 0.023132
v 0.075602 -0.013014 4.636066
v 0.075602 -0.013014 3.050394
v 0.075602 -0.013014 1.509240
v 0.075602 -0.013014 -0.031910
v 0.075602 -0.013014 2.279817
v 0.075602 -0.013014 0.023132
v 2.985076 -0.013014 0.243814
v 2.411561 -0.013014 0.243814
v 2.411561 -0.013014 0.453691
v 2.985076 -0.013014 0.453691
v 2.411561 -0.008580 0.243814
v 2.985076 -0.008580 0.243814
v 2.985076 -0.008580 0.453691
v 2.411561 -0.008580 0.453691
v 2.406868 -0.008580 0.722222
v 2.980388 -0.008580 0.722222
v 2.980388 -0.008580 0.932099
v 2.406868 -0.008580 0.932099
v 2.402179 -0.008580 1.200624
v 2.975696 -0.008580 1.200624
v 2.975696 -0.008580 1.410501
v 2.402179 -0.008580 1.410501
v 2.397486 -0.008580 1.679031
v 2.971007 -0.008580 1.679031
v 2.971007 -0.008580 1.888908
v 2.397486 -0.008580 1.888908
v 2.017536 -0.008580 2.810326
v 2.022446 -0.008580 3.383823
v 1.812578 -0.008580 3.385622
v 1.807668 -0.008580 2.812124
v 1.539110 -0.008580 2.809734
v 1.544020 -0.008580 3.383231
v 1.334148 -0.008580 3.385030
v 1.329238 -0.008580 2.811532
v 1.060680 -0.008580 2.809142
v 1.065594 -0.008580 3.382639
v 0.855722 -0.008580 3.384434
v 0.850812 -0.008580 2.810936
v 0.582254 -0.008580 2.808546
v 0.587164 -0.008580 3.382043
v 0.377296 -0.008580 3.383842
v 0.372386 -0.008580 2.810344
v -4.621993 -0.013014 2.279817
v 0.006306 -0.013014 4.636066
v -1.534848 -0.013014 4.636066
v -3.075997 -0.013014 4.636066
v -4.621993 -0.013014 3.050394
v -4.621993 -0.013014 1.509240
v -4.621993 -0.013014 -0.031910
v -3.075997 -0.013014 2.279817
v -2.305420 -0.013014 2.279817
v -2.305420 -0.013014 3.050394
v -3.075997 -0.013014 3.050394
v -4.621993 -0.013014 2.279817
v -4.621993 -0.013014 3.050394
v -3.075997 -0.013014 4.636066
v -2.305420 -0.013014 4.636066
v -2.305420 -0.013014 2.279817
v -2.305420 -0.013014 -0.031910
v 0.006306 -0.013014 3.050394
v 0.006306 -0.013014 1.509240
v 0.006306 -0.013014 -0.031910
v -2.305420 -0.013014 1.509240
v -2.305420 -0.013014 3.050394
v -1.534848 -0.013014 3.050394
v -1.534843 -0.013014 1.509240
v -1.534843 -0.013014 -0.031910
v -2.305420 -0.013014 4.636066
v -3.075997 -0.013014 2.279817
v -3.075997 -0.013014 3.050394
v -3.075997 -0.013014 1.509240
v -3.075997 -0.013014 -0.031910
v -1.534848 -0.013014 2.279817
v 0.006306 -0.013014 2.279817
v -3.075997 -0.013014 3.050394
v -3.075997 -0.013014 2.279817
v -4.621993 -0.013014 3.050394
v -4.621993 -0.013014 2.279817
v -2.305420 -0.013014 3.050394
v 0.006306 -0.013014 0.023132
v -2.305420 -0.013014 4.636066
v -3.075997 -0.013014 4.636066
v -3.075997 0.118865 3.050394
v -3.075997 0.118865 2.279817
v -4.621993 0.118865 3.050394
v -4.621993 0.118865 2.279817
v -2.305420 0.118865 3.050394
v -4.621993 -0.013014 0.023132
v -2.305420 0.118865 4.636066
v -3.075997 0.118865 4.636066
v -2.305420 -0.013014 2.648311
v -2.673918 -0.013014 2.279817
v -2.305420 -0.013014 2.279817
v -2.354789 -0.013014 2.464066
v -2.489669 -0.013014 2.329186
v -2.673918 0.118865 2.279817
v -2.305420 0.118865 2.648311
v -2.489669 0.118865 2.329186
v -2.354789 0.118865 2.464066
v -1.534843 -0.013014 0.023132
v -3.075997 -0.013014 0.023132
v -2.305420 -0.013014 0.023132
v -0.072686 -0.013014 4.636066
v -0.072686 -0.013014 3.050394
v -0.072686 -0.013014 1.509240
v -0.072686 -0.013014 -0.031910
v -0.072686 -0.013014 2.279817
v -0.072686 -0.013014 0.023132
v -2.982159 -0.013014 0.243814
v -2.408639 -0.013014 0.243814
v -2.408639 -0.013014 0.453691
v -2.982159 -0.013014 0.453691
v -2.408639 -0.008580 0.243814
v -2.982159 -0.008580 0.243814
v -2.982159 -0.008580 0.453691
v -2.408639 -0.008580 0.453691
v -2.403950 -0.008580 0.722222
v -2.977467 -0.008580 0.722222
v -2.977467 -0.008580 0.932099
v -2.403950 -0.008580 0.932099
v -2.399258 -0.008580 1.200624
v -2.972778 -0.008580 1.200624
v -2.972778 -0.008580 1.410501
v -2.399258 -0.008580 1.410501
v -2.394570 -0.008580 1.679031
v -2.968086 -0.008580 1.679031
v -2.968086 -0.008580 1.888908
v -2.394570 -0.008580 1.888908
v -2.014619 -0.008580 2.810326
v -2.019529 -0.008580 3.383823
v -1.809661 -0.008580 3.385622
v -1.804747 -0.008580 2.812124
v -1.536189 -0.008580 2.809734
v -1.541103 -0.008580 3.383231
v -1.331231 -0.008580 3.385030
v -1.326321 -0.008580 2.811532
v -1.057763 -0.008580 2.809142
v -1.062673 -0.008580 3.382639
v -0.852805 -0.008580 3.384434
v -0.847895 -0.008580 2.810936
v -0.579337 -0.008580 2.808546
v -0.584248 -0.008580 3.382043
v -0.374380 -0.008580 3.383842
v -0.369465 -0.008580 2.810344
v 4.624913 -0.013014 -2.254593
v -0.003389 -0.013015 -4.610843
v 1.537764 -0.013015 -4.610843
v 3.078914 -0.013015 -4.610843
v 4.624913 -0.013015 -3.025170
v 4.624913 -0.013014 -1.484016
v 4.624913 -0.013014 0.057133
v 3.078914 -0.013014 -2.254593
v 2.308337 -0.013014 -2.254593
v 2.308337 -0.013015 -3.025170
v 3.078914 -0.013015 -3.025170
v 4.624913 -0.013014 -2.254593
v 4.624913 -0.013015 -3.025170
v 3.078914 -0.013015 -4.610843
v 2.308337 -0.013015 -4.610843
v 2.308337 -0.013014 -2.254593
v 2.308337 -0.013014 0.057133
v -0.003389 -0.013015 -3.025170
v -0.003389 -0.013014 -1.484016
v -0.003389 -0.013014 0.057133
v 2.308337 -0.013014 -1.484016
v 2.308337 -0.013015 -3.025170
v 1.537764 -0.013015 -3.025170
v 1.537764 -0.013014 -1.484016
v 1.537764 -0.013014 0.057133
v 2.308337 -0.013015 -4.610843
v 3.078914 -0.013014 -2.254593
v 3.078914 -0.013015 -3.025170
v 3.078914 -0.013014 -1.484016
v 3.078914 -0.013014 0.057133
v 1.537764 -0.013014 -2.254593
v -0.003389 -0.013014 -2.254593
v 3.078914 -0.013015 -3.025170
v 3.078914 -0.013014 -2.254593
v 4.624913 -0.013015 -3.025170
v 4.624913 -0.013014 -2.254593
v 2.308337 -0.013015 -3.025170
v -0.003389 -0.013014 0.002091
v 2.308337 -0.013015 -4.610843
v 3.078914 -0.013015 -4.610843
v 3.078914 0.118865 -3.025170
v 3.078914 0.118865 -2.254593
v 4.624913 0.118865 -3.025170
v 4.624913 0.118865 -2.254593
v 2.308337 0.118865 -3.025170
v 4.624913 -0.013014 0.002091
v 2.308337 0.118865 -4.610843
v 3.078914 0.118865 -4.610843
v 2.308337 -0.013015 -2.623087
v 2.676836 -0.013014 -2.254593
v 2.308337 -0.013014 -2.254593
v 2.357706 -0.013015 -2.438842
v 2.492586 -0.013015 -2.303962
v 2.676836 0.118865 -2.254593
v 2.308337 0.118865 -2.623087
v 2.492586 0.118865 -2.303962
v 2.357706 0.118865 -2.438842
v 1.537764 -0.013014 0.002091
v 3.078914 -0.013014 0.002091
v 2.308337 -0.013014 0.002091
v 0.075602 -0.013015 -4.610843
v 0.075602 -0.013015 -3.025170
v 0.075602 -0.013014 -1.484016
v 0.075602 -0.013014 0.057133
v 0.075602 -0.013014 -2.254593
v 0.075602 -0.013014 0.002091
v 2.985076 -0.013014 -0.218591
v 2.411561 -0.013014 -0.218591
v 2.411561 -0.013014 -0.428473
v 2.985076 -0.013014 -0.428473
v 2.411561 -0.008580 -0.218591
v 2.985076 -0.008580 -0.218591
v 2.985076 -0.008580 -0.428473
v 2.411561 -0.008580 -0.428473
v 2.406868 -0.008580 -0.696998
v 2.980388 -0.008580 -0.696998
v 2.980388 -0.008581 -0.906875
v 2.406868 -0.008581 -0.906875
v 2.402179 -0.008581 -1.175401
v 2.975696 -0.008581 -1.175401
v 2.975696 -0.008581 -1.385278
v 2.402179 -0.008581 -1.385278
v 2.397486 -0.008581 -1.653808
v 2.971007 -0.008581 -1.653808
v 2.971007 -0.008581 -1.863685
v 2.397486 -0.008581 -1.863685
v 2.017536 -0.008581 -2.785106
v 2.022446 -0.008581 -3.358600
v 1.812578 -0.008581 -3.360398
v 1.807668 -0.008581 -2.786900
v 1.539110 -0.008581 -2.784510
v 1.544020 -0.008581 -3.358008
v 1.334148 -0.008581 -3.359806
v 1.329238 -0.008581 -2.786309
v 1.060680 -0.008581 -2.783918
v 1.065594 -0.008581 -3.357416
v 0.855722 -0.008581 -3.359210
v 0.850812 -0.008581 -2.785717
v 0.582254 -0.008581 -2.783322
v 0.587164 -0.008581 -3.356819
v 0.377296 -0.008581 -3.358618
v 0.372386 -0.008581 -2.785120
v -4.621993 -0.013014 -2.254593
v 0.006306 -0.013015 -4.610843
v -1.534848 -0.013015 -4.610843
v -3.075997 -0.013015 -4.610843
v -4.621993 -0.013015 -3.025170
v -4.621993 -0.013014 -1.484016
v -4.621993 -0.013014 0.057133
v -3.075997 -0.013014 -2.254593
v -2.305420 -0.013014 -2.254593
v -2.305420 -0.013015 -3.025170
v -3.075997 -0.013015 -3.025170
v -4.621993 -0.013014 -2.254593
v -4.621993 -0.013015 -3.025170
v -3.075997 -0.013015 -4.610843
v -2.305420 -0.013015 -4.610843
v -2.305420 -0.013014 -2.254593
v -2.305420 -0.013014 0.057133
v 0.006306 -0.013015 -3.025170
v 0.006306 -0.013014 -1.484016
v 0.006306 -0.013014 0.057133
v -2.305420 -0.013014 -1.484016
v -2.305420 -0.013015 -3.025170
v -1.534848 -0.013015 -3.025170
v -1.534843 -0.013014 -1.484016
v -1.534843 -0.013014 0.057133
v -2.305420 -0.013015 -4.610843
v -3.075997 -0.013014 -2.254593
v -3.075997 -0.013015 -3.025170
v -3.075997 -0.013014 -1.484016
v -3.075997 -0.013014 0.057133
v -1.534848 -0.013014 -2.254593
v 0.006306 -0.013014 -2.254593
v -3.075997 -0.013015 -3.025170
v -3.075997 -0.013014 -2.254593
v -4.621993 -0.013015 -3.025170
v -4.621993 -0.013014 -2.254593
v -2.305420 -0.013015 -3.025170
v 0.006306 -0.013014 0.002091
v -2.305420 -0.013015 -4.610843
v -3.075997 -0.013015 -4.610843
v -3.075997 0.118865 -3.025170
v -3.075997 0.118865 -2.254593
v -4.621993 0.118865 -3.025170
v -4.621993 0.118865 -2.254593
v -2.305420 0.118865 -3.025170
v -4.621993 -0.013014 0.002091
v -2.305420 0.118865 -4.610843
v -3.075997 0.118865 -4.610843
v -2.305420 -0.013015 -2.623087
v -2.673918 -0.013014 -2.254593
v -2.305420 -0.013014 -2.254593
v -2.354789 -0.013015 -2.438842
v -2.489669 -0.013015 -2.303962
v -2.673918 0.118865 -2.254593
v -2.305420 0.118865 -2.623087
v -2.489669 0.118865 -2.303962
v -2.354789 0.118865 -2.438842
v -1.534843 -0.013014 0.002091
v -3.075997 -0.013014 0.002091
v -2.305420 -0.013014 0.002091
v -0.072686 -0.013015 -4.610843
v -0.072686 -0.013015 -3.025170
v -0.072686 -0.013014 -1.484016
v -0.072686 -0.013014 0.057133
v -0.072686 -0.013014 -2.254593
v -0.072686 -0.013014 0.002091
v -2.982159 -0.013014 -0.218591
v -2.408639 -0.013014 -0.218591
v -2.408639 -0.013014 -0.428473
v -2.982159 -0.013014 -0.428473
v -2.408639 -0.008580 -0.218591
v -2.982159 -0.008580 -0.218591
v -2.982159 -0.008580 -0.428473
v -2.408639 -0.008580 -0.428473
v -2.403950 -0.008580 -0.696998
v -2.977467 -0.008580 -0.696998
v -2.977467 -0.008581 -0.906875
v -2.403950 -0.008581 -0.906875
v -2.399258 -0.008581 -1.175401
v -2.972778 -0.008581 -1.175401
v -2.972778 -0.008581 -1.385278
v -2.399258 -0.008581 -1.385278
v -2.394570 -0.008581 -1.653808
v -2.968086 -0.008581 -1.653808
v -2.968086 -0.008581 -1.863685
v -2.394570 -0.008581 -1.863685
v -2.014619 -0.008581 -2.785106
v -2.019529 -0.008581 -3.358600
v -1.809661 -0.008581 -3.360398
v -1.804747 -0.008581 -2.786900
v -1.536189 -0.008581 -2.784510
v -1.541103 -0.008581 -3.358008
v -1.331231 -0.008581 -3.359806
v -1.326321 -0.008581 -2.786309
v -1.057763 -0.008581 -2.783918
v -1.062673 -0.008581 -3.357416
v -0.852805 -0.008581 -3.359210
v -0.847895 -0.008581 -2.785717
v -0.579337 -0.008581 -2.783322
v -0.584248 -0.008581 -3.356819
v -0.374380 -0.008581 -3.358618
v -0.369465 -0.008581 -2.785120
vn -0.0000 1.0000 -0.0000
vn -0.0000 -0.0000 -1.0000
vn -0.0000 -0.0000 -0.0000
vn -0.0000 -1.0000 -0.0000
vn 0.1464 -0.9239 -0.3535
vn -0.1464 -0.9239 0.3535
vn 0.2706 -0.9239 0.2706
vn -0.0000 -0.0000 1.0000
vn 1.0000 -0.0000 -0.0000
vn -1.0000 -0.0000 -0.0000
vn -0.9659 -0.0000 -0.2588
vn -0.7071 -0.0000 -0.7071
vn -0.2588 -0.0000 -0.9659
vn 0.9659 -0.0000 -0.2588
vn 0.7071 -0.0000 -0.7071
vn 0.2588 -0.0000 -0.9659
vn -0.9659 -0.0000 0.2588
vn -0.7071 -0.0000 0.7071
vn -0.2588 -0.0000 0.9659
vn 0.9659 -0.0000 0.2588
vn 0.7071 -0.0000 0.7071
vn 0.2588 -0.0000 0.9659
vt 1.000000 0.254815
vt 0.832809 0.254815
vt 0.749476 0.254815
vt 0.832809 0.338148
vt 0.749476 0.338148
vt 0.749476 0.498862
vt 0.832809 0.498862
vt 0.832809 0.504815
vt 0.749476 0.504815
vt 0.508018 0.000000
vt 0.666143 0.000000
vt 0.666142 0.171481
vt 0.508018 0.171481
vt 0.508018 0.254815
vt 0.666143 0.254815
vt 0.666143 0.338148
vt 0.508018 0.338148
vt 0.508018 0.498862
vt 0.666143 0.498862
vt 0.666143 0.504815
vt 0.508018 0.504815
vt 0.000000 0.000000
vt 0.749476 0.171481
vt 0.749476 0.000000
vt 1.000000 0.338148
vt 0.789327 0.254815
vt 1.000000 0.498862
vt 0.749476 0.214964
vt 0.749476 0.234889
vt 0.749476 0.249476
vt 0.499476 0.338148
vt 0.499476 0.498862
vt 0.499476 0.171481
vt 0.499476 0.254815
vt 0.499476 0.504815
vt 0.832809 0.171481
vt 0.769401 0.253035
vt 0.751256 0.234889
vt 1.000000 0.171481
vt 0.832809 0.000000
vt 0.769401 0.254815
vt 1.000000 0.504815
vt 0.499476 0.000000
s 0
usemtl Street
f 1/1/1 27/2/2 8/2/1 12/1/2
f 16/3/1 27/2/1 29/4/1 21/5/1
f 60/6/1 59/7/1 30/8/1 17/9/1
f 61/10/1 3/11/1 23/12/1 62/13/1
f 65/14/1 31/15/1 24/16/1 63/17/1
f 66/18/1 58/19/1 25/20/1 64/21/1
f 5/22/3 1/22/3 12/22/3 13/22/3
f 28/22/1 5/22/2 13/22/1 11/22/2
f 16/3/3 22/23/3 10/23/3 9/3/3
f 26/22/1 4/22/2 14/22/1 15/22/2
f 22/23/3 26/24/3 15/24/3 10/23/3
f 12/1/1 8/2/2 34/2/1 36/1/2
f 14/22/3 11/22/3 33/22/3 40/22/3
f 15/22/1 14/22/2 40/22/1 39/22/2
f 3/11/1 26/24/1 22/23/1 23/12/1
f 31/15/1 16/3/1 21/5/1 24/16/1
f 58/19/1 60/6/1 17/9/1 25/20/1
f 23/12/1 22/23/1 16/3/1 31/15/1
f 4/22/3 28/22/3 11/22/3 14/22/3
f 27/2/1 1/1/1 6/25/1 29/4/1
f 27/2/1 16/3/2 9/3/1 8/2/2
f 62/13/1 23/12/1 31/15/1 65/14/1
f 8/2/4 9/3/2 51/3/4 50/26/4 34/2/2
f 13/22/3 12/22/3 36/22/3 35/22/3
f 10/23/3 15/24/3 39/24/3 37/23/3
f 11/22/1 13/22/2 35/22/1 33/22/2
f 29/4/1 6/25/1 46/27/1 59/7/1
f 9/3/5 10/23/4 37/23/6 49/28/7 51/3/4
f 49/28/1 52/29/1 51/3/1
f 52/29/1 53/30/1 51/3/1
f 53/30/1 50/3/1 51/3/1
f 24/16/1 21/5/1 60/6/1 58/19/1
f 63/17/1 24/16/1 58/19/1 66/18/1
f 21/5/1 29/4/1 59/7/1 60/6/1
f 19/31/1 63/17/1 66/18/1 38/32/1
f 18/33/1 62/13/1 65/14/1 32/34/1
f 38/32/1 66/18/1 64/21/1 20/35/1
f 32/34/1 65/14/1 63/17/1 19/31/1
f 103/1/2 114/1/1 110/2/2 129/2/1
f 118/3/1 123/5/1 131/4/1 129/2/1
f 162/6/1 119/9/1 132/8/1 161/7/1
f 163/10/1 164/13/1 125/12/1 105/11/1
f 167/14/1 165/17/1 126/16/1 133/15/1
f 168/18/1 166/21/1 127/20/1 160/19/1
f 107/22/3 115/22/3 114/22/3 103/22/3
f 130/22/2 113/22/1 115/22/2 107/22/1
f 118/3/3 111/3/3 112/23/3 124/23/3
f 128/22/2 117/22/1 116/22/2 106/22/1
f 124/23/3 112/23/3 117/24/3 128/24/3
f 114/1/2 138/1/1 136/2/2 110/2/1
f 116/22/3 142/22/3 135/22/3 113/22/3
f 117/22/2 141/22/1 142/22/2 116/22/1
f 105/11/1 125/12/1 124/23/1 128/24/1
f 133/15/1 126/16/1 123/5/1 118/3/1
f 160/19/1 127/20/1 119/9/1 162/6/1
f 125/12/1 133/15/1 118/3/1 124/23/1
f 106/22/3 116/22/3 113/22/3 130/22/3
f 129/2/1 131/4/1 108/25/1 103/1/1
f 129/2/2 110/2/1 111/3/2 118/3/1
f 164/13/1 167/14/1 133/15/1 125/12/1
f 110/2/8 136/2/1 152/26/1 153/3/8 111/3/1
f 115/22/3 137/22/3 138/22/3 114/22/3
f 112/23/3 139/23/3 141/24/3 117/24/3
f 113/22/2 135/22/1 137/22/2 115/22/1
f 131/4/1 161/7/1 148/27/1 108/25/1
f 111/3/1 153/3/1 151/28/1 139/23/1 112/23/1
f 151/28/1 153/3/1 154/29/1
f 154/29/1 153/3/1 155/30/1
f 155/30/1 153/3/1 152/3/1
f 126/16/1 160/19/1 162/6/1 123/5/1
f 165/17/1 168/18/1 160/19/1 126/16/1
f 123/5/1 162/6/1 161/7/1 131/4/1
f 121/31/1 140/32/1 168/18/1 165/17/1
f 120/33/1 134/34/1 167/14/1 164/13/1
f 140/32/1 122/35/1 166/21/1 168/18/1
f 134/34/1 121/31/1 165/17/1 167/14/1
f 205/1/2 216/1/1 212/2/2 231/2/1
f 220/3/1 225/5/1 233/4/1 231/2/1
f 264/6/1 221/9/1 234/8/1 263/7/1
f 265/10/1 266/13/1 227/12/1 207/11/1
f 269/14/1 267/17/1 228/16/1 235/15/1
f 270/18/1 268/21/1 229/20/1 262/19/1
f 209/22/3 217/22/3 216/22/3 205/22/3
f 232/22/2 215/22/1 217/22/2 209/22/1
f 220/3/3 213/3/3 214/23/3 226/23/3
f 230/22/2 219/22/1 218/22/2 208/22/1
f 226/23/3 214/23/3 219/24/3 230/24/3
f 216/1/2 240/1/1 238/2/2 212/2/1
f 218/22/3 244/22/3 237/22/3 215/22/3
f 219/22/2 243/22/1 244/22/2 218/22/1
f 207/11/1 227/12/1 226/23/1 230/24/1
f 235/15/1 228/16/1 225/5/1 220/3/1
f 262/19/1 229/20/1 221/9/1 264/6/1
f 227/12/1 235/15/1 220/3/1 226/23/1
f 208/22/3 218/22/3 215/22/3 232/22/3
f 231/2/1 233/4/1 210/25/1 205/1/1
f 231/2/2 212/2/1 213/3/2 220/3/1
f 266/13/1 269/14/1 235/15/1 227/12/1
f 212/2/2 238/2/1 254/26/1 255/3/2 213/3/1
f 217/22/3 239/22/3 240/22/3 216/22/3
f 214/23/3 241/23/3 243/24/3 219/24/3
f 215/22/2 237/22/1 239/22/2 217/22/1
f 233/4/1 263/7/1 250/27/1 210/25/1
f 213/3/4 255/3/6 253/28/7 241/23/4 214/23/5
f 253/28/1 255/3/1 256/29/1
f 256/29/1 255/3/1 257/30/1
f 257/30/1 255/3/1 254/3/1
f 228/16/1 262/19/1 264/6/1 225/5/1
f 267/17/1 270/18/1 262/19/1 228/16/1
f 225/5/1 264/6/1 263/7/1 233/4/1
f 223/31/1 242/32/1 270/18/1 267/17/1
f 222/33/1 236/34/1 269/14/1 266/13/1
f 242/32/1 224/35/1 268/21/1 270/18/1
f 236/34/1 223/31/1 267/17/1 269/14/1
f 307/1/1 333/2/2 314/2/1 318/1/2
f 322/3/1 333/2/1 335/4/1 327/5/1
f 366/6/1 365/7/1 336/8/1 323/9/1
f 367/10/1 309/11/1 329/12/1 368/13/1
f 371/14/1 337/15/1 330/16/1 369/17/1
f 372/18/1 364/19/1 331/20/1 370/21/1
f 311/22/3 307/22/3 318/22/3 319/22/3
f 334/22/1 311/22/2 319/22/1 317/22/2
f 322/3/3 328/23/3 316/23/3 315/3/3
f 332/22/1 310/22/2 320/22/1 321/22/2
f 328/23/3 332/24/3 321/24/3 316/23/3
f 318/1/1 314/2/2 340/2/1 342/1/2
f 320/22/3 317/22/3 339/22/3 346/22/3
f 321/22/1 320/22/2 346/22/1 345/22/2
f 309/11/1 332/24/1 328/23/1 329/12/1
f 337/15/1 322/3/1 327/5/1 330/16/1
f 364/19/1 366/6/1 323/9/1 331/20/1
f 329/12/1 328/23/1 322/3/1 337/15/1
f 310/22/3 334/22/3 317/22/3 320/22/3
f 333/2/1 307/1/1 312/25/1 335/4/1
f 333/2/1 322/3/2 315/3/1 314/2/2
f 368/13/1 329/12/1 337/15/1 371/14/1
f 314/2/4 315/3/2 357/3/4 356/26/4 340/2/2
f 319/22/3 318/22/3 342/22/3 341/22/3
f 316/23/3 321/24/3 345/24/3 343/23/3
f 317/22/1 319/22/2 341/22/1 339/22/2
f 335/4/1 312/25/1 352/27/1 365/7/1
f 315/3/1 316/23/1 343/23/1 355/28/1 357/3/1
f 355/28/1 358/29/1 357/3/1
f 358/29/1 359/30/1 357/3/1
f 359/30/1 356/3/1 357/3/1
f 330/16/1 327/5/1 366/6/1 364/19/1
f 369/17/1 330/16/1 364/19/1 372/18/1
f 327/5/1 335/4/1 365/7/1 366/6/1
f 325/31/1 369/17/1 372/18/1 344/32/1
f 324/33/1 368/13/1 371/14/1 338/34/1
f 344/32/1 372/18/1 370/21/1 326/35/1
f 338/34/1 371/14/1 369/17/1 325/31/1
usemtl Sidewalk
f 36/1/2 34/2/2 42/2/2 44/1/2
f 34/2/2 50/26/2 54/26/2 42/2/2
f 45/23/1 41/36/1 42/2/1 54/26/1 56/37/1 57/38/1 55/28/1
f 41/36/1 43/39/1 44/1/1 42/2/1
f 47/24/1 48/40/1 41/36/1 45/23/1
f 40/22/9 33/22/9 41/22/9 48/22/9
f 33/22/8 35/22/8 43/22/8 41/22/8
f 37/23/10 39/24/10 47/24/10 45/23/10
f 49/28/11 55/28/11 57/38/11 52/29/11
f 52/29/12 57/38/12 56/37/12 53/41/12
f 53/41/13 56/37/13 54/26/13 50/26/13
f 49/28/10 37/23/10 45/23/10 55/28/10
f 138/1/2 146/1/2 144/2/2 136/2/2
f 136/2/2 144/2/2 156/26/2 152/26/2
f 147/23/1 157/28/1 159/38/1 158/37/1 156/26/1 144/2/1 143/36/1
f 143/36/1 144/2/1 146/1/1 145/39/1
f 149/24/1 147/23/1 143/36/1 150/40/1
f 142/22/10 150/22/10 143/22/10 135/22/10
f 135/22/8 143/22/8 145/22/8 137/22/8
f 139/23/9 147/23/9 149/24/9 141/24/9
f 151/28/14 154/29/14 159/38/14 157/28/14
f 154/29/15 155/41/15 158/37/15 159/38/15
f 155/41/16 152/26/16 156/26/16 158/37/16
f 151/28/9 157/28/9 147/23/9 139/23/9
f 240/1/8 248/1/8 246/2/8 238/2/8
f 238/2/8 246/2/8 258/26/8 254/26/8
f 249/23/1 259/28/1 261/38/1 260/37/1 258/26/1 246/2/1 245/36/1
f 245/36/1 246/2/1 248/1/1 247/39/1
f 251/24/1 249/23/1 245/36/1 252/40/1
f 244/22/9 252/22/9 245/22/9 237/22/9
f 237/22/2 245/22/2 247/22/2 239/22/2
f 241/23/10 249/23/10 251/24/10 243/24/10
f 253/28/17 256/29/17 261/38/17 259/28/17
f 256/29/18 257/41/18 260/37/18 261/38/18
f 257/41/19 254/26/19 258/26/19 260/37/19
f 253/28/10 259/28/10 249/23/10 241/23/10
f 342/1/8 340/2/8 348/2/8 350/1/8
f 340/2/8 356/26/8 360/26/8 348/2/8
f 351/23/1 347/36/1 348/2/1 360/26/1 362/37/1 363/38/1 361/28/1
f 347/36/1 349/39/1 350/1/1 348/2/1
f 353/24/1 354/40/1 347/36/1 351/23/1
f 346/22/10 339/22/10 347/22/10 354/22/10
f 339/22/2 341/22/2 349/22/2 347/22/2
f 343/23/9 345/24/9 353/24/9 351/23/9
f 355/28/20 361/28/20 363/38/20 358/29/20
f 358/29/21 363/38/21 362/37/21 359/41/21
f 359/41/22 362/37/22 360/26/22 356/26/22
f 355/28/9 343/23/9 351/23/9 361/28/9
usemtl Stripes
f 59/7/1 46/27/1 7/42/1 30/8/1
f 2/43/1 61/10/1 62/13/1 18/33/1
f 67/5/4 70/6/4 69/7/4 68/4/4
f 72/5/1 71/4/1 74/7/1 73/6/1
f 68/4/10 69/7/10 74/7/10 71/4/10
f 67/5/2 68/4/2 71/4/2 72/5/2
f 69/7/8 70/6/8 73/6/8 74/7/8
f 70/6/9 67/5/9 72/5/9 73/6/9
f 76/5/1 75/4/1 78/7/1 77/6/1
f 80/5/1 79/4/1 82/7/1 81/6/1
f 84/5/1 83/4/1 86/7/1 85/6/1
f 88/5/1 87/4/1 90/7/1 89/6/1
f 92/5/1 91/4/1 94/7/1 93/6/1
f 96/5/1 95/4/1 98/7/1 97/6/1
f 100/5/1 99/4/1 102/7/1 101/6/1
f 161/7/1 132/8/1 109/42/1 148/27/1
f 104/43/1 120/33/1 164/13/1 163/10/1
f 169/5/4 170/4/4 171/7/4 172/6/4
f 174/5/1 175/6/1 176/7/1 173/4/1
f 170/4/9 173/4/9 176/7/9 171/7/9
f 169/5/2 174/5/2 173/4/2 170/4/2
f 171/7/8 176/7/8 175/6/8 172/6/8
f 172/6/10 175/6/10 174/5/10 169/5/10
f 178/5/1 179/6/1 180/7/1 177/4/1
f 182/5/1 183/6/1 184/7/1 181/4/1
f 186/5/1 187/6/1 188/7/1 185/4/1
f 190/5/1 191/6/1 192/7/1 189/4/1
f 194/5/1 195/6/1 196/7/1 193/4/1
f 198/5/1 199/6/1 200/7/1 197/4/1
f 202/5/1 203/6/1 204/7/1 201/4/1
f 263/7/1 234/8/1 211/42/1 250/27/1
f 206/43/1 222/33/1 266/13/1 265/10/1
f 271/5/4 272/4/4 273/7/4 274/6/4
f 276/5/1 277/6/1 278/7/1 275/4/1
f 272/4/10 275/4/10 278/7/10 273/7/10
f 271/5/8 276/5/8 275/4/8 272/4/8
f 273/7/2 278/7/2 277/6/2 274/6/2
f 274/6/9 277/6/9 276/5/9 271/5/9
f 280/5/1 281/6/1 282/7/1 279/4/1
f 284/5/1 285/6/1 286/7/1 283/4/1
f 288/5/1 289/6/1 290/7/1 287/4/1
f 292/5/1 293/6/1 294/7/1 291/4/1
f 296/5/1 297/6/1 298/7/1 295/4/1
f 300/5/1 301/6/1 302/7/1 299/4/1
f 304/5/1 305/6/1 306/7/1 303/4/1
f 365/7/1 352/27/1 313/42/1 336/8/1
f 308/43/1 367/10/1 368/13/1 324/33/1
f 373/5/4 376/6/4 375/7/4 374/4/4
f 378/5/1 377/4/1 380/7/1 379/6/1
f 374/4/9 375/7/9 380/7/9 377/4/9
f 373/5/8 374/4/8 377/4/8 378/5/8
f 375/7/2 376/6/2 379/6/2 380/7/2
f 376/6/10 373/5/10 378/5/10 379/6/10
f 382/5/1 381/4/1 384/7/1 383/6/1
f 386/5/1 385/4/1 388/7/1 387/6/1
f 390/5/1 389/4/1 392/7/1 391/6/1
f 394/5/1 393/4/1 396/7/1 395/6/1
f 398/5/1 397/4/1 400/7/1 399/6/1
f 402/5/1 401/4/1 404/7/1 403/6/1
f 406/5/1 405/4/1 408/7/1 407/6/1
